<svg xmlns="http://www.w3.org/2000/svg" width="900" height="520" viewBox="0 0 900 520">
<rect width="900" height="520" fill="#F5F1E9"/>
<text x="40" y="50" font-family="Georgia,serif" font-size="26" fill="#2D2D2D">IDUNA — Prueba de legibilidad (favicon)</text>
<text x="40" y="120" font-family="Arial" font-size="14" fill="#A45A41">ORIGINAL</text>
<rect x="40" y="140" width="16" height="17" fill="none" stroke="#E8C5B0"/>
<g transform="translate(40,140) scale(0.03856016349509329) translate(-513.4820000000001,-6993.8820000000005)">
  <g transform="translate(0,7680) scale(0.1,-0.1)" fill="#2D2D2D"><path d="M6922 6300 c-63 -15 -102 -70 -102 -145 0 -91 32 -177 165 -440 203
-403 287 -633 352 -965 24 -120 27 -158 27 -350 0 -202 -1 -221 -26 -312 -68
-249 -214 -412 -408 -457 -106 -25 -254 -9 -366 40 -116 49 -257 169 -359 304
-55 73 -145 246 -173 335 -100 306 -87 611 36 860 54 110 150 216 242 265 48
26 65 30 137 30 74 0 85 -3 125 -30 30 -21 52 -48 73 -89 45 -91 41 -179 -20
-416 -78 -305 -74 -470 15 -648 45 -89 125 -178 220 -242 75 -51 214 -117 255
-122 25 -3 32 3 52 38 l23 41 -78 38 c-144 71 -254 209 -282 354 -25 131 -7
250 75 512 69 218 87 301 88 409 1 221 -95 386 -279 476 -71 36 -85 39 -179
42 -122 5 -189 -8 -283 -53 -276 -132 -490 -451 -548 -815 -20 -127 -15 -386
11 -500 67 -303 209 -557 439 -786 252 -250 518 -387 782 -401 211 -12 376 60
491 212 122 162 174 351 174 640 0 292 -63 597 -197 942 -64 167 -95 235 -221
487 -135 270 -155 317 -155 373 -1 60 22 83 83 83 137 0 358 -138 584 -364
155 -155 247 -281 337 -459 202 -403 195 -825 -17 -1042 -63 -65 -144 -119
-231 -154 l-69 -28 -3 -46 -3 -46 38 6 c58 9 192 52 248 80 190 96 330 264
382 463 21 79 24 296 5 385 -74 344 -252 651 -561 969 -252 257 -499 436 -691
499 -87 29 -162 39 -208 27z"/></g>
</g>
<text x="40" y="290" font-family="Arial" font-size="12" fill="#2D2D2D">16px</text>
<rect x="146" y="140" width="24" height="26" fill="none" stroke="#E8C5B0"/>
<g transform="translate(146,140) scale(0.057840245242639934) translate(-513.4820000000001,-6993.8820000000005)">
  <g transform="translate(0,7680) scale(0.1,-0.1)" fill="#2D2D2D"><path d="M6922 6300 c-63 -15 -102 -70 -102 -145 0 -91 32 -177 165 -440 203
-403 287 -633 352 -965 24 -120 27 -158 27 -350 0 -202 -1 -221 -26 -312 -68
-249 -214 -412 -408 -457 -106 -25 -254 -9 -366 40 -116 49 -257 169 -359 304
-55 73 -145 246 -173 335 -100 306 -87 611 36 860 54 110 150 216 242 265 48
26 65 30 137 30 74 0 85 -3 125 -30 30 -21 52 -48 73 -89 45 -91 41 -179 -20
-416 -78 -305 -74 -470 15 -648 45 -89 125 -178 220 -242 75 -51 214 -117 255
-122 25 -3 32 3 52 38 l23 41 -78 38 c-144 71 -254 209 -282 354 -25 131 -7
250 75 512 69 218 87 301 88 409 1 221 -95 386 -279 476 -71 36 -85 39 -179
42 -122 5 -189 -8 -283 -53 -276 -132 -490 -451 -548 -815 -20 -127 -15 -386
11 -500 67 -303 209 -557 439 -786 252 -250 518 -387 782 -401 211 -12 376 60
491 212 122 162 174 351 174 640 0 292 -63 597 -197 942 -64 167 -95 235 -221
487 -135 270 -155 317 -155 373 -1 60 22 83 83 83 137 0 358 -138 584 -364
155 -155 247 -281 337 -459 202 -403 195 -825 -17 -1042 -63 -65 -144 -119
-231 -154 l-69 -28 -3 -46 -3 -46 38 6 c58 9 192 52 248 80 190 96 330 264
382 463 21 79 24 296 5 385 -74 344 -252 651 -561 969 -252 257 -499 436 -691
499 -87 29 -162 39 -208 27z"/></g>
</g>
<text x="146" y="290" font-family="Arial" font-size="12" fill="#2D2D2D">24px</text>
<rect x="260" y="140" width="32" height="35" fill="none" stroke="#E8C5B0"/>
<g transform="translate(260,140) scale(0.07712032699018657) translate(-513.4820000000001,-6993.8820000000005)">
  <g transform="translate(0,7680) scale(0.1,-0.1)" fill="#2D2D2D"><path d="M6922 6300 c-63 -15 -102 -70 -102 -145 0 -91 32 -177 165 -440 203
-403 287 -633 352 -965 24 -120 27 -158 27 -350 0 -202 -1 -221 -26 -312 -68
-249 -214 -412 -408 -457 -106 -25 -254 -9 -366 40 -116 49 -257 169 -359 304
-55 73 -145 246 -173 335 -100 306 -87 611 36 860 54 110 150 216 242 265 48
26 65 30 137 30 74 0 85 -3 125 -30 30 -21 52 -48 73 -89 45 -91 41 -179 -20
-416 -78 -305 -74 -470 15 -648 45 -89 125 -178 220 -242 75 -51 214 -117 255
-122 25 -3 32 3 52 38 l23 41 -78 38 c-144 71 -254 209 -282 354 -25 131 -7
250 75 512 69 218 87 301 88 409 1 221 -95 386 -279 476 -71 36 -85 39 -179
42 -122 5 -189 -8 -283 -53 -276 -132 -490 -451 -548 -815 -20 -127 -15 -386
11 -500 67 -303 209 -557 439 -786 252 -250 518 -387 782 -401 211 -12 376 60
491 212 122 162 174 351 174 640 0 292 -63 597 -197 942 -64 167 -95 235 -221
487 -135 270 -155 317 -155 373 -1 60 22 83 83 83 137 0 358 -138 584 -364
155 -155 247 -281 337 -459 202 -403 195 -825 -17 -1042 -63 -65 -144 -119
-231 -154 l-69 -28 -3 -46 -3 -46 38 6 c58 9 192 52 248 80 190 96 330 264
382 463 21 79 24 296 5 385 -74 344 -252 651 -561 969 -252 257 -499 436 -691
499 -87 29 -162 39 -208 27z"/></g>
</g>
<text x="260" y="290" font-family="Arial" font-size="12" fill="#2D2D2D">32px</text>
<rect x="382" y="140" width="48" height="52" fill="none" stroke="#E8C5B0"/>
<g transform="translate(382,140) scale(0.11568049048527987) translate(-513.4820000000001,-6993.8820000000005)">
  <g transform="translate(0,7680) scale(0.1,-0.1)" fill="#2D2D2D"><path d="M6922 6300 c-63 -15 -102 -70 -102 -145 0 -91 32 -177 165 -440 203
-403 287 -633 352 -965 24 -120 27 -158 27 -350 0 -202 -1 -221 -26 -312 -68
-249 -214 -412 -408 -457 -106 -25 -254 -9 -366 40 -116 49 -257 169 -359 304
-55 73 -145 246 -173 335 -100 306 -87 611 36 860 54 110 150 216 242 265 48
26 65 30 137 30 74 0 85 -3 125 -30 30 -21 52 -48 73 -89 45 -91 41 -179 -20
-416 -78 -305 -74 -470 15 -648 45 -89 125 -178 220 -242 75 -51 214 -117 255
-122 25 -3 32 3 52 38 l23 41 -78 38 c-144 71 -254 209 -282 354 -25 131 -7
250 75 512 69 218 87 301 88 409 1 221 -95 386 -279 476 -71 36 -85 39 -179
42 -122 5 -189 -8 -283 -53 -276 -132 -490 -451 -548 -815 -20 -127 -15 -386
11 -500 67 -303 209 -557 439 -786 252 -250 518 -387 782 -401 211 -12 376 60
491 212 122 162 174 351 174 640 0 292 -63 597 -197 942 -64 167 -95 235 -221
487 -135 270 -155 317 -155 373 -1 60 22 83 83 83 137 0 358 -138 584 -364
155 -155 247 -281 337 -459 202 -403 195 -825 -17 -1042 -63 -65 -144 -119
-231 -154 l-69 -28 -3 -46 -3 -46 38 6 c58 9 192 52 248 80 190 96 330 264
382 463 21 79 24 296 5 385 -74 344 -252 651 -561 969 -252 257 -499 436 -691
499 -87 29 -162 39 -208 27z"/></g>
</g>
<text x="382" y="290" font-family="Arial" font-size="12" fill="#2D2D2D">48px</text>
<rect x="520" y="140" width="64" height="70" fill="none" stroke="#E8C5B0"/>
<g transform="translate(520,140) scale(0.15424065398037315) translate(-513.4820000000001,-6993.8820000000005)">
  <g transform="translate(0,7680) scale(0.1,-0.1)" fill="#2D2D2D"><path d="M6922 6300 c-63 -15 -102 -70 -102 -145 0 -91 32 -177 165 -440 203
-403 287 -633 352 -965 24 -120 27 -158 27 -350 0 -202 -1 -221 -26 -312 -68
-249 -214 -412 -408 -457 -106 -25 -254 -9 -366 40 -116 49 -257 169 -359 304
-55 73 -145 246 -173 335 -100 306 -87 611 36 860 54 110 150 216 242 265 48
26 65 30 137 30 74 0 85 -3 125 -30 30 -21 52 -48 73 -89 45 -91 41 -179 -20
-416 -78 -305 -74 -470 15 -648 45 -89 125 -178 220 -242 75 -51 214 -117 255
-122 25 -3 32 3 52 38 l23 41 -78 38 c-144 71 -254 209 -282 354 -25 131 -7
250 75 512 69 218 87 301 88 409 1 221 -95 386 -279 476 -71 36 -85 39 -179
42 -122 5 -189 -8 -283 -53 -276 -132 -490 -451 -548 -815 -20 -127 -15 -386
11 -500 67 -303 209 -557 439 -786 252 -250 518 -387 782 -401 211 -12 376 60
491 212 122 162 174 351 174 640 0 292 -63 597 -197 942 -64 167 -95 235 -221
487 -135 270 -155 317 -155 373 -1 60 22 83 83 83 137 0 358 -138 584 -364
155 -155 247 -281 337 -459 202 -403 195 -825 -17 -1042 -63 -65 -144 -119
-231 -154 l-69 -28 -3 -46 -3 -46 38 6 c58 9 192 52 248 80 190 96 330 264
382 463 21 79 24 296 5 385 -74 344 -252 651 -561 969 -252 257 -499 436 -691
499 -87 29 -162 39 -208 27z"/></g>
</g>
<text x="520" y="290" font-family="Arial" font-size="12" fill="#2D2D2D">64px</text>
<rect x="674" y="140" width="128" height="139" fill="none" stroke="#E8C5B0"/>
<g transform="translate(674,140) scale(0.3084813079607463) translate(-513.4820000000001,-6993.8820000000005)">
  <g transform="translate(0,7680) scale(0.1,-0.1)" fill="#2D2D2D"><path d="M6922 6300 c-63 -15 -102 -70 -102 -145 0 -91 32 -177 165 -440 203
-403 287 -633 352 -965 24 -120 27 -158 27 -350 0 -202 -1 -221 -26 -312 -68
-249 -214 -412 -408 -457 -106 -25 -254 -9 -366 40 -116 49 -257 169 -359 304
-55 73 -145 246 -173 335 -100 306 -87 611 36 860 54 110 150 216 242 265 48
26 65 30 137 30 74 0 85 -3 125 -30 30 -21 52 -48 73 -89 45 -91 41 -179 -20
-416 -78 -305 -74 -470 15 -648 45 -89 125 -178 220 -242 75 -51 214 -117 255
-122 25 -3 32 3 52 38 l23 41 -78 38 c-144 71 -254 209 -282 354 -25 131 -7
250 75 512 69 218 87 301 88 409 1 221 -95 386 -279 476 -71 36 -85 39 -179
42 -122 5 -189 -8 -283 -53 -276 -132 -490 -451 -548 -815 -20 -127 -15 -386
11 -500 67 -303 209 -557 439 -786 252 -250 518 -387 782 -401 211 -12 376 60
491 212 122 162 174 351 174 640 0 292 -63 597 -197 942 -64 167 -95 235 -221
487 -135 270 -155 317 -155 373 -1 60 22 83 83 83 137 0 358 -138 584 -364
155 -155 247 -281 337 -459 202 -403 195 -825 -17 -1042 -63 -65 -144 -119
-231 -154 l-69 -28 -3 -46 -3 -46 38 6 c58 9 192 52 248 80 190 96 330 264
382 463 21 79 24 296 5 385 -74 344 -252 651 -561 969 -252 257 -499 436 -691
499 -87 29 -162 39 -208 27z"/></g>
</g>
<text x="674" y="290" font-family="Arial" font-size="12" fill="#2D2D2D">128px</text>
<text x="40" y="320" font-family="Arial" font-size="14" fill="#A45A41">COMPACTO (trazo engrosado)</text>
<rect x="40" y="340" width="16" height="17" fill="none" stroke="#E8C5B0"/>
<g transform="translate(40,340) scale(0.03856016349509329) translate(-513.4820000000001,-6993.8820000000005)">
  <g transform="translate(0,7680) scale(0.1,-0.1)" fill="#2D2D2D" stroke="#2D2D2D" stroke-width="150" stroke-linejoin="round" stroke-linecap="round"><path d="M6922 6300 c-63 -15 -102 -70 -102 -145 0 -91 32 -177 165 -440 203
-403 287 -633 352 -965 24 -120 27 -158 27 -350 0 -202 -1 -221 -26 -312 -68
-249 -214 -412 -408 -457 -106 -25 -254 -9 -366 40 -116 49 -257 169 -359 304
-55 73 -145 246 -173 335 -100 306 -87 611 36 860 54 110 150 216 242 265 48
26 65 30 137 30 74 0 85 -3 125 -30 30 -21 52 -48 73 -89 45 -91 41 -179 -20
-416 -78 -305 -74 -470 15 -648 45 -89 125 -178 220 -242 75 -51 214 -117 255
-122 25 -3 32 3 52 38 l23 41 -78 38 c-144 71 -254 209 -282 354 -25 131 -7
250 75 512 69 218 87 301 88 409 1 221 -95 386 -279 476 -71 36 -85 39 -179
42 -122 5 -189 -8 -283 -53 -276 -132 -490 -451 -548 -815 -20 -127 -15 -386
11 -500 67 -303 209 -557 439 -786 252 -250 518 -387 782 -401 211 -12 376 60
491 212 122 162 174 351 174 640 0 292 -63 597 -197 942 -64 167 -95 235 -221
487 -135 270 -155 317 -155 373 -1 60 22 83 83 83 137 0 358 -138 584 -364
155 -155 247 -281 337 -459 202 -403 195 -825 -17 -1042 -63 -65 -144 -119
-231 -154 l-69 -28 -3 -46 -3 -46 38 6 c58 9 192 52 248 80 190 96 330 264
382 463 21 79 24 296 5 385 -74 344 -252 651 -561 969 -252 257 -499 436 -691
499 -87 29 -162 39 -208 27z"/></g>
</g>
<text x="40" y="490" font-family="Arial" font-size="12" fill="#2D2D2D">16px</text>
<rect x="146" y="340" width="24" height="26" fill="none" stroke="#E8C5B0"/>
<g transform="translate(146,340) scale(0.057840245242639934) translate(-513.4820000000001,-6993.8820000000005)">
  <g transform="translate(0,7680) scale(0.1,-0.1)" fill="#2D2D2D" stroke="#2D2D2D" stroke-width="150" stroke-linejoin="round" stroke-linecap="round"><path d="M6922 6300 c-63 -15 -102 -70 -102 -145 0 -91 32 -177 165 -440 203
-403 287 -633 352 -965 24 -120 27 -158 27 -350 0 -202 -1 -221 -26 -312 -68
-249 -214 -412 -408 -457 -106 -25 -254 -9 -366 40 -116 49 -257 169 -359 304
-55 73 -145 246 -173 335 -100 306 -87 611 36 860 54 110 150 216 242 265 48
26 65 30 137 30 74 0 85 -3 125 -30 30 -21 52 -48 73 -89 45 -91 41 -179 -20
-416 -78 -305 -74 -470 15 -648 45 -89 125 -178 220 -242 75 -51 214 -117 255
-122 25 -3 32 3 52 38 l23 41 -78 38 c-144 71 -254 209 -282 354 -25 131 -7
250 75 512 69 218 87 301 88 409 1 221 -95 386 -279 476 -71 36 -85 39 -179
42 -122 5 -189 -8 -283 -53 -276 -132 -490 -451 -548 -815 -20 -127 -15 -386
11 -500 67 -303 209 -557 439 -786 252 -250 518 -387 782 -401 211 -12 376 60
491 212 122 162 174 351 174 640 0 292 -63 597 -197 942 -64 167 -95 235 -221
487 -135 270 -155 317 -155 373 -1 60 22 83 83 83 137 0 358 -138 584 -364
155 -155 247 -281 337 -459 202 -403 195 -825 -17 -1042 -63 -65 -144 -119
-231 -154 l-69 -28 -3 -46 -3 -46 38 6 c58 9 192 52 248 80 190 96 330 264
382 463 21 79 24 296 5 385 -74 344 -252 651 -561 969 -252 257 -499 436 -691
499 -87 29 -162 39 -208 27z"/></g>
</g>
<text x="146" y="490" font-family="Arial" font-size="12" fill="#2D2D2D">24px</text>
<rect x="260" y="340" width="32" height="35" fill="none" stroke="#E8C5B0"/>
<g transform="translate(260,340) scale(0.07712032699018657) translate(-513.4820000000001,-6993.8820000000005)">
  <g transform="translate(0,7680) scale(0.1,-0.1)" fill="#2D2D2D" stroke="#2D2D2D" stroke-width="150" stroke-linejoin="round" stroke-linecap="round"><path d="M6922 6300 c-63 -15 -102 -70 -102 -145 0 -91 32 -177 165 -440 203
-403 287 -633 352 -965 24 -120 27 -158 27 -350 0 -202 -1 -221 -26 -312 -68
-249 -214 -412 -408 -457 -106 -25 -254 -9 -366 40 -116 49 -257 169 -359 304
-55 73 -145 246 -173 335 -100 306 -87 611 36 860 54 110 150 216 242 265 48
26 65 30 137 30 74 0 85 -3 125 -30 30 -21 52 -48 73 -89 45 -91 41 -179 -20
-416 -78 -305 -74 -470 15 -648 45 -89 125 -178 220 -242 75 -51 214 -117 255
-122 25 -3 32 3 52 38 l23 41 -78 38 c-144 71 -254 209 -282 354 -25 131 -7
250 75 512 69 218 87 301 88 409 1 221 -95 386 -279 476 -71 36 -85 39 -179
42 -122 5 -189 -8 -283 -53 -276 -132 -490 -451 -548 -815 -20 -127 -15 -386
11 -500 67 -303 209 -557 439 -786 252 -250 518 -387 782 -401 211 -12 376 60
491 212 122 162 174 351 174 640 0 292 -63 597 -197 942 -64 167 -95 235 -221
487 -135 270 -155 317 -155 373 -1 60 22 83 83 83 137 0 358 -138 584 -364
155 -155 247 -281 337 -459 202 -403 195 -825 -17 -1042 -63 -65 -144 -119
-231 -154 l-69 -28 -3 -46 -3 -46 38 6 c58 9 192 52 248 80 190 96 330 264
382 463 21 79 24 296 5 385 -74 344 -252 651 -561 969 -252 257 -499 436 -691
499 -87 29 -162 39 -208 27z"/></g>
</g>
<text x="260" y="490" font-family="Arial" font-size="12" fill="#2D2D2D">32px</text>
<rect x="382" y="340" width="48" height="52" fill="none" stroke="#E8C5B0"/>
<g transform="translate(382,340) scale(0.11568049048527987) translate(-513.4820000000001,-6993.8820000000005)">
  <g transform="translate(0,7680) scale(0.1,-0.1)" fill="#2D2D2D" stroke="#2D2D2D" stroke-width="150" stroke-linejoin="round" stroke-linecap="round"><path d="M6922 6300 c-63 -15 -102 -70 -102 -145 0 -91 32 -177 165 -440 203
-403 287 -633 352 -965 24 -120 27 -158 27 -350 0 -202 -1 -221 -26 -312 -68
-249 -214 -412 -408 -457 -106 -25 -254 -9 -366 40 -116 49 -257 169 -359 304
-55 73 -145 246 -173 335 -100 306 -87 611 36 860 54 110 150 216 242 265 48
26 65 30 137 30 74 0 85 -3 125 -30 30 -21 52 -48 73 -89 45 -91 41 -179 -20
-416 -78 -305 -74 -470 15 -648 45 -89 125 -178 220 -242 75 -51 214 -117 255
-122 25 -3 32 3 52 38 l23 41 -78 38 c-144 71 -254 209 -282 354 -25 131 -7
250 75 512 69 218 87 301 88 409 1 221 -95 386 -279 476 -71 36 -85 39 -179
42 -122 5 -189 -8 -283 -53 -276 -132 -490 -451 -548 -815 -20 -127 -15 -386
11 -500 67 -303 209 -557 439 -786 252 -250 518 -387 782 -401 211 -12 376 60
491 212 122 162 174 351 174 640 0 292 -63 597 -197 942 -64 167 -95 235 -221
487 -135 270 -155 317 -155 373 -1 60 22 83 83 83 137 0 358 -138 584 -364
155 -155 247 -281 337 -459 202 -403 195 -825 -17 -1042 -63 -65 -144 -119
-231 -154 l-69 -28 -3 -46 -3 -46 38 6 c58 9 192 52 248 80 190 96 330 264
382 463 21 79 24 296 5 385 -74 344 -252 651 -561 969 -252 257 -499 436 -691
499 -87 29 -162 39 -208 27z"/></g>
</g>
<text x="382" y="490" font-family="Arial" font-size="12" fill="#2D2D2D">48px</text>
<rect x="520" y="340" width="64" height="70" fill="none" stroke="#E8C5B0"/>
<g transform="translate(520,340) scale(0.15424065398037315) translate(-513.4820000000001,-6993.8820000000005)">
  <g transform="translate(0,7680) scale(0.1,-0.1)" fill="#2D2D2D" stroke="#2D2D2D" stroke-width="150" stroke-linejoin="round" stroke-linecap="round"><path d="M6922 6300 c-63 -15 -102 -70 -102 -145 0 -91 32 -177 165 -440 203
-403 287 -633 352 -965 24 -120 27 -158 27 -350 0 -202 -1 -221 -26 -312 -68
-249 -214 -412 -408 -457 -106 -25 -254 -9 -366 40 -116 49 -257 169 -359 304
-55 73 -145 246 -173 335 -100 306 -87 611 36 860 54 110 150 216 242 265 48
26 65 30 137 30 74 0 85 -3 125 -30 30 -21 52 -48 73 -89 45 -91 41 -179 -20
-416 -78 -305 -74 -470 15 -648 45 -89 125 -178 220 -242 75 -51 214 -117 255
-122 25 -3 32 3 52 38 l23 41 -78 38 c-144 71 -254 209 -282 354 -25 131 -7
250 75 512 69 218 87 301 88 409 1 221 -95 386 -279 476 -71 36 -85 39 -179
42 -122 5 -189 -8 -283 -53 -276 -132 -490 -451 -548 -815 -20 -127 -15 -386
11 -500 67 -303 209 -557 439 -786 252 -250 518 -387 782 -401 211 -12 376 60
491 212 122 162 174 351 174 640 0 292 -63 597 -197 942 -64 167 -95 235 -221
487 -135 270 -155 317 -155 373 -1 60 22 83 83 83 137 0 358 -138 584 -364
155 -155 247 -281 337 -459 202 -403 195 -825 -17 -1042 -63 -65 -144 -119
-231 -154 l-69 -28 -3 -46 -3 -46 38 6 c58 9 192 52 248 80 190 96 330 264
382 463 21 79 24 296 5 385 -74 344 -252 651 -561 969 -252 257 -499 436 -691
499 -87 29 -162 39 -208 27z"/></g>
</g>
<text x="520" y="490" font-family="Arial" font-size="12" fill="#2D2D2D">64px</text>
<rect x="674" y="340" width="128" height="139" fill="none" stroke="#E8C5B0"/>
<g transform="translate(674,340) scale(0.3084813079607463) translate(-513.4820000000001,-6993.8820000000005)">
  <g transform="translate(0,7680) scale(0.1,-0.1)" fill="#2D2D2D" stroke="#2D2D2D" stroke-width="150" stroke-linejoin="round" stroke-linecap="round"><path d="M6922 6300 c-63 -15 -102 -70 -102 -145 0 -91 32 -177 165 -440 203
-403 287 -633 352 -965 24 -120 27 -158 27 -350 0 -202 -1 -221 -26 -312 -68
-249 -214 -412 -408 -457 -106 -25 -254 -9 -366 40 -116 49 -257 169 -359 304
-55 73 -145 246 -173 335 -100 306 -87 611 36 860 54 110 150 216 242 265 48
26 65 30 137 30 74 0 85 -3 125 -30 30 -21 52 -48 73 -89 45 -91 41 -179 -20
-416 -78 -305 -74 -470 15 -648 45 -89 125 -178 220 -242 75 -51 214 -117 255
-122 25 -3 32 3 52 38 l23 41 -78 38 c-144 71 -254 209 -282 354 -25 131 -7
250 75 512 69 218 87 301 88 409 1 221 -95 386 -279 476 -71 36 -85 39 -179
42 -122 5 -189 -8 -283 -53 -276 -132 -490 -451 -548 -815 -20 -127 -15 -386
11 -500 67 -303 209 -557 439 -786 252 -250 518 -387 782 -401 211 -12 376 60
491 212 122 162 174 351 174 640 0 292 -63 597 -197 942 -64 167 -95 235 -221
487 -135 270 -155 317 -155 373 -1 60 22 83 83 83 137 0 358 -138 584 -364
155 -155 247 -281 337 -459 202 -403 195 -825 -17 -1042 -63 -65 -144 -119
-231 -154 l-69 -28 -3 -46 -3 -46 38 6 c58 9 192 52 248 80 190 96 330 264
382 463 21 79 24 296 5 385 -74 344 -252 651 -561 969 -252 257 -499 436 -691
499 -87 29 -162 39 -208 27z"/></g>
</g>
<text x="674" y="490" font-family="Arial" font-size="12" fill="#2D2D2D">128px</text>
</svg>
